HIERARCHY
ROOT root
{
	OFFSET	0	13.1	24.9
	CHANNELS 6  Xposition Yposition Zposition Xrotation Yrotation Zrotation
	JOINT spine_1
	{
		OFFSET	0	9.99999	0
		CHANNELS 3  Xrotation Yrotation Zrotation
		JOINT spine_2
		{
			OFFSET	0	112	-10
			CHANNELS 3  Xrotation Yrotation Zrotation
			JOINT spine_3
			{
				OFFSET	0	206.5	19.3
				CHANNELS 3  Xrotation Yrotation Zrotation
				JOINT spine_4
				{
					OFFSET	0	110.4	14.6
					CHANNELS 3  Xrotation Yrotation Zrotation
					JOINT neck_1
					{
						OFFSET	0	71.8	-50.3
						CHANNELS 3  Xrotation Yrotation Zrotation
						JOINT neck_2
						{
							OFFSET	0	86.2	-25.8
							CHANNELS 3  Xrotation Yrotation Zrotation
							JOINT head_ee
							{
								OFFSET	0	179.8	-8.7
								CHANNELS 3  Xrotation Yrotation Zrotation
								End Site
								{
									OFFSET	1	0	0
								}
							}
						}
					}
					JOINT left_clavicle
					{
						OFFSET	-43.2	22.4	-70.8
						CHANNELS 3  Xrotation Yrotation Zrotation
						JOINT left_shoulder
						{
							OFFSET	-93.9	-5.79999	48.7
							CHANNELS 3  Xrotation Yrotation Zrotation
							JOINT left_elbow
							{
								OFFSET	-291.4	-30.8	15.2
								CHANNELS 3  Xrotation Yrotation Zrotation
								JOINT left_lowarm_twist
								{
									OFFSET	-110.7	-3.89999	13.6
									CHANNELS 3  Xrotation Yrotation Zrotation
									JOINT left_hand
									{
										OFFSET	-110.7	-3.89999	13.6
										CHANNELS 3  Xrotation Yrotation Zrotation
										JOINT left_ee
										{
											OFFSET	-80.8	-5.10001	12.1
											CHANNELS 3  Xrotation Yrotation Zrotation
											End Site
											{
												OFFSET	1	0	0
											}
										}
									}
								}
							}
						}
					}
					JOINT right_clavicle
					{
						OFFSET	43.2	22.4	-70.8
						CHANNELS 3  Xrotation Yrotation Zrotation
						JOINT right_shoulder
						{
							OFFSET	93.9	-5.79999	48.7
							CHANNELS 3  Xrotation Yrotation Zrotation
							JOINT right_elbow
							{
								OFFSET	291.4	-30.8	15.2
								CHANNELS 3  Xrotation Yrotation Zrotation
								JOINT right_lowarm_twist
								{
									OFFSET	110.7	-3.89999	13.6
									CHANNELS 3  Xrotation Yrotation Zrotation
									JOINT right_hand
									{
										OFFSET	110.7	-3.89999	13.6
										CHANNELS 3  Xrotation Yrotation Zrotation
										JOINT right_ee
										{
											OFFSET	80.8	-5.10001	12.1
											CHANNELS 3  Xrotation Yrotation Zrotation
											End Site
											{
												OFFSET	1	0	0
											}
										}
									}
								}
							}
						}
					}
				}
			}
		}
	}
	JOINT left_hip
	{
		OFFSET	-82.8	-127.5	0.300001
		CHANNELS 3  Xrotation Yrotation Zrotation
		JOINT left_knee
		{
			OFFSET	-28.2	-396.7	2.2
			CHANNELS 3  Xrotation Yrotation Zrotation
			JOINT left_ankle
			{
				OFFSET	-11.7	-411.3	35.4
				CHANNELS 3  Xrotation Yrotation Zrotation
				JOINT left_toes
				{
					OFFSET	0	-60	-88.6
					CHANNELS 3  Xrotation Yrotation Zrotation
					JOINT left_foot_ee
					{
						OFFSET	-22.5	-16.5	-42.2
						CHANNELS 3  Xrotation Yrotation Zrotation
						End Site
						{
							OFFSET	1	0	0
						}
					}
				}
			}
		}
	}
	JOINT right_hip
	{
		OFFSET	82.8	-127.5	0.300001
		CHANNELS 3  Xrotation Yrotation Zrotation
		JOINT right_knee
		{
			OFFSET	28.2	-396.7	2.2
			CHANNELS 3  Xrotation Yrotation Zrotation
			JOINT right_ankle
			{
				OFFSET	11.7	-411.3	35.4
				CHANNELS 3  Xrotation Yrotation Zrotation
				JOINT right_toes
				{
					OFFSET	0	-60	-88.6
					CHANNELS 3  Xrotation Yrotation Zrotation
					JOINT right_foot_ee
					{
						OFFSET	22.5	-16.5	-42.2
						CHANNELS 3  Xrotation Yrotation Zrotation
						End Site
						{
							OFFSET	1	0	0
						}
					}
				}
			}
		}
	}
}
MOTION
Frames: 14
Frame Time: 0.02
1238.77171017 722.111 -1708.50286923 -1.27977404681 7.98317371162 -12.5265929281 0.623454 0.838899 5.41387 0.639616 0.493226 5.4561 0.692298 -0.599831 5.44545 0.651043 0.266374 5.47182 3.52437 17.193 -7.57163 5.62705 36.278 -8.08172 -0.0 0.0 -0.0 -1.26852 13.2096 -0.531792 -20.1816 -49.0882 77.5186 0.209953 -5.93782 0.0108889 -70.4018 -6.59731 5.30568 -0.869428 7.66575 -2.44956 -0.0 0.0 -0.0 10.1002 4.69422 -20.0295 -15.153 18.4228 -74.2475 2.10867 46.2432 -0.900446 74.5041 3.22064 8.27012 -0.780482 -6.5305 2.3668 0.0 0.0 0.0 16.1093 23.0922 7.07188 -50.2127 -1.24075 7.36348 8.68961 10.9567 -1.24232 39.366 -0.0 -0.0 -0.0 0.0 -0.0 23.5074 14.5755 7.48759 -30.7427 -0.0149043 -4.66168 2.85409 8.6604 0.433495 39.9113 -0.0 -0.0 0.0 0.0 0.0 
1222.48508916 724.23 -1736.07097387 0.0772007343523 6.40284906958 -12.3539193556 0.0818121 0.861156 5.65283 0.0994392 0.500304 5.69598 0.157982 -0.693818 5.67573 0.11312 0.209751 5.714 2.66365 17.008 -8.59045 4.78219 36.9213 -8.99532 -0.0 0.0 -0.0 -1.36833 12.9016 -0.742671 -21.5396 -49.5945 79.6922 0.195883 -5.54246 0.00948171 -70.8282 -6.65176 5.30892 0.0762003 4.99228 2.58901 -0.0 0.0 -0.0 10.1845 8.60804 -20.2475 -14.48 18.9859 -72.8696 2.15548 46.871 -0.934433 76.7468 3.46883 8.41585 -0.736504 -7.4229 1.69244 0.0 0.0 0.0 22.4868 23.1063 1.17424 -50.3973 -1.25695 7.38683 7.43984 4.00385 -1.06918 39.644 -0.0 -0.0 -0.0 0.0 -0.0 21.3321 13.2469 10.1139 -33.3072 0.0967486 -5.03933 5.20981 11.1048 0.79657 40.1146 -0.0 -0.0 0.0 0.0 0.0 
1220.25760409 724.23 -1734.78109429 0.077277800675 6.89332423816 -12.3545850295 0.0818121 0.861156 5.65283 0.0994392 0.500304 5.69598 0.157982 -0.693818 5.67573 0.11312 0.209751 5.714 2.66365 17.008 -8.59045 4.78219 36.9213 -8.99532 -0.0 0.0 -0.0 -1.36833 12.9016 -0.742671 -21.5396 -49.5945 79.6922 0.195883 -5.54246 0.00948171 -70.8282 -6.65176 5.30892 0.0762003 4.99228 2.58901 -0.0 0.0 -0.0 10.1845 8.60804 -20.2475 -14.48 18.9859 -72.8696 2.15548 46.871 -0.934433 76.7468 3.46883 8.41585 -0.736504 -7.4229 1.69244 0.0 0.0 0.0 22.4868 23.1063 1.17424 -50.3973 -1.25695 7.38683 7.43984 4.00385 -1.06918 39.644 -0.0 -0.0 -0.0 0.0 -0.0 21.3321 13.2469 10.1139 -33.3072 0.0967486 -5.03933 5.20981 11.1048 0.79657 40.1146 -0.0 -0.0 0.0 0.0 0.0 
1160.79349072 723.959 -1736.9259705 -1.05261692796 17.0236815901 -12.5592945082 0.681991 1.03365 5.67452 0.699644 0.671081 5.72855 0.773039 -0.470831 5.7484 0.727231 0.441388 5.75073 2.13062 15.4549 -9.38856 4.01982 34.9228 -9.73121 -0.0 0.0 -0.0 -1.47128 15.0812 -0.580576 -28.3216 -51.4491 75.7787 0.239016 -6.75262 0.014101 -71.3922 -6.7238 5.31258 0.58385 0.619604 4.15718 -0.0 0.0 -0.0 10.333 12.6404 -20.5151 -16.1825 23.0157 -72.1955 2.23184 47.8643 -0.990614 77.5972 3.56441 8.46856 -0.880002 -4.61912 3.85628 0.0 0.0 0.0 29.6454 24.2194 -1.80202 -50.3121 -1.24946 7.37606 3.29297 2.90294 -0.479969 39.1971 -0.0 -0.0 -0.0 0.0 -0.0 20.9336 11.5156 12.8628 -35.3732 0.198947 -5.33978 7.0205 15.9794 1.10343 38.7436 -0.0 -0.0 0.0 0.0 0.0 
1120.93126679 723.204 -1736.11280897 -2.43302540821 24.6015704568 -11.2935097639 1.48132 1.19343 5.30976 1.49659 0.853636 5.37468 1.57905 -0.144337 5.43994 1.53849 0.715337 5.39477 1.6814 13.9284 -10.3449 3.4171 33.0681 -10.709 -0.0 0.0 -0.0 -1.63545 15.9725 -0.703655 -31.9088 -52.7774 74.1848 0.220146 -6.22389 0.0119688 -73.1072 -6.94298 5.31931 0.712786 0.678157 5.04369 -0.0 0.0 -0.0 12.5795 20.2423 -25.252 -2.90669 23.9278 -70.6039 2.0213 45.0318 -0.837977 79.4395 3.77408 8.57786 -1.38941 -4.1024 7.45821 0.0 0.0 0.0 31.9566 21.663 -0.911202 -49.0849 -1.14341 7.21965 0.3626 5.55338 -0.053083 39.9098 -0.0 -0.0 -0.0 0.0 -0.0 20.5861 9.43192 14.2612 -35.4547 0.203201 -5.35156 7.68788 18.3003 1.22854 37.8156 -0.0 -0.0 0.0 0.0 0.0 
1093.21638562 721.955 -1727.88873878 -2.65624119833 28.5029072767 -11.1616547347 1.72296 1.22005 5.30842 1.7382 0.880291 5.37503 1.82211 -0.0949059 5.44561 1.78157 0.765045 5.39259 1.10622 12.9266 -10.97 2.71628 31.85 -11.2627 -0.0 0.0 -0.0 -1.62479 17.1246 -0.505718 -33.638 -53.7594 73.1892 0.221214 -6.25384 0.0120848 -74.2733 -7.09202 5.32012 0.760094 1.04332 5.5094 -0.0 0.0 -0.0 13.2352 24.4483 -26.3966 4.11297 23.8414 -68.4168 1.84382 42.4036 -0.715291 80.5759 3.90511 8.6419 -1.74023 -3.34645 10.1509 0.0 0.0 0.0 34.3575 19.6254 -0.962157 -47.3887 -1.00242 6.99986 -2.55547 8.2163 0.376127 40.1527 -0.0 -0.0 -0.0 0.0 -0.0 20.126 8.00504 15.5943 -35.486 0.204842 -5.35609 8.21696 20.9071 1.34198 36.9507 -0.0 -0.0 0.0 0.0 0.0 
1070.91812575 721.758 -1721.32720432 -2.19345192745 31.3862083227 -11.3277223093 1.67576 1.07497 5.2849 1.69099 0.736993 5.34236 1.76104 -0.23644 5.38764 1.72108 0.616157 5.3576 -1.42236 13.4602 -8.72405 -0.394 31.1247 -7.85229 -0.0 0.0 -0.0 -1.48682 19.1866 0.0246867 -35.7756 -54.8336 71.3389 0.231358 -6.53819 0.0132149 -74.9594 -7.17968 5.31916 0.675351 2.13105 5.38581 -0.0 0.0 -0.0 13.5395 26.0855 -26.9176 7.51183 24.1906 -66.5324 1.59316 38.2779 -0.552927 80.3857 3.88308 8.63136 -1.93891 -2.66877 11.8093 0.0 0.0 0.0 35.5079 17.9714 -1.13 -42.7635 -0.651877 6.38075 -6.25782 12.5283 0.92977 39.3489 -0.0 -0.0 -0.0 0.0 -0.0 19.9239 6.13665 17.0946 -36.6069 0.265129 -5.5174 9.43092 22.5891 1.55868 36.2344 -0.0 -0.0 0.0 0.0 0.0 
1057.77240786 718.479 -1719.88644154 -2.86984287838 32.3465032488 -10.7357569711 1.72387 1.09832 5.48324 1.74028 0.747735 5.54177 1.81376 -0.256649 5.58596 1.7708 0.627378 5.55664 -3.93368 14.0474 -6.72359 -3.36482 30.7842 -4.83436 -0.0 0.0 -0.0 -1.28223 19.3238 0.350219 -36.9099 -54.1014 70.4572 0.213504 -6.03751 0.0112594 -75.1078 -7.19864 5.31882 0.490911 4.65422 5.18304 -0.0 0.0 -0.0 13.1878 24.0964 -26.3234 8.71112 25.9062 -66.2759 1.61463 38.6513 -0.566281 78.7205 3.69183 8.536 -1.85142 -2.4454 11.3221 0.0 0.0 0.0 35.9708 15.2805 -1.42381 -38.0062 -0.34482 5.71713 -10.4713 16.1248 1.5753 39.1303 -0.0 -0.0 -0.0 0.0 -0.0 19.8049 5.51957 17.5278 -37.1327 0.294499 -5.59267 10.982 24.3702 1.83764 35.6279 -0.0 -0.0 0.0 0.0 0.0 
1046.35528445 717.508 -1726.79360208 -2.947402988 33.3460907026 -10.2266304618 1.79431 0.928504 5.22182 1.80928 0.594818 5.27014 1.8646 -0.35428 5.29169 1.82587 0.484695 5.28137 -5.36422 14.3868 -5.6082 -5.02786 30.6628 -3.17616 -0.0 0.0 -0.0 -1.08521 19.7806 0.708282 -36.1484 -54.6134 70.154 0.232707 -6.57598 0.0133689 -75.2976 -7.22289 5.3183 0.404831 5.50671 4.95972 -0.0 0.0 -0.0 12.8511 22.1924 -25.7242 8.08489 27.0776 -66.4915 1.62149 38.7699 -0.570572 77.1267 3.51143 8.43957 -1.8457 -2.16605 11.4143 0.0 0.0 0.0 35.8861 14.8276 -1.96706 -33.0402 -0.084335 5.00024 -13.5693 19.3402 2.06675 38.5755 -0.0 -0.0 -0.0 0.0 -0.0 19.6387 4.43814 17.6167 -37.575 0.319743 -5.65579 11.684 25.3524 1.97055 34.685 -0.0 -0.0 0.0 0.0 0.0 
1031.05763813 714.118 -1734.59444602 -4.63691496451 33.6344743594 -8.98074038023 2.26947 0.944909 5.50351 2.28612 0.593345 5.55228 2.342 -0.359643 5.57224 2.29908 0.523507 5.55928 -6.12274 14.316 -4.63118 -5.92449 29.8697 -1.95916 -0.0 0.0 -0.0 -1.15992 21.2652 0.812172 -38.5995 -55.8493 68.1157 0.227907 -6.44148 0.0128247 -75.9618 -7.3077 5.31587 0.16393 8.93115 4.76743 -0.0 0.0 -0.0 12.9092 21.2903 -25.9357 8.76397 27.4802 -68.6016 1.59554 38.3194 -0.554399 75.9071 3.37524 8.36242 -1.79994 -1.53169 11.4002 0.0 0.0 0.0 35.2607 13.8681 -1.82854 -24.9927 0.203068 3.79966 -17.0567 23.2021 2.64457 36.7963 -0.0 -0.0 -0.0 0.0 -0.0 20.6206 3.88351 17.6346 -38.1135 0.351134 -5.73237 12.4008 25.2847 2.08309 34.2967 -0.0 -0.0 0.0 0.0 0.0 
1026.68729327 714.118 -1728.74612273 -4.69070959624 34.6076346986 -8.88484354259 2.26947 0.944909 5.50351 2.28612 0.593345 5.55228 2.342 -0.359643 5.57224 2.29908 0.523507 5.55928 -6.12274 14.316 -4.63118 -5.92449 29.8697 -1.95916 -0.0 0.0 -0.0 -1.15992 21.2652 0.812172 -38.5995 -55.8493 68.1157 0.227907 -6.44148 0.0128247 -75.9618 -7.3077 5.31587 0.16393 8.93115 4.76743 -0.0 0.0 -0.0 12.9092 21.2903 -25.9357 8.76397 27.4802 -68.6016 1.59554 38.3194 -0.554399 75.9071 3.37524 8.36242 -1.79994 -1.53169 11.4002 0.0 0.0 0.0 35.2607 13.8681 -1.82854 -24.9927 0.203068 3.79966 -17.0567 23.2021 2.64457 36.7963 -0.0 -0.0 -0.0 0.0 -0.0 20.6206 3.88351 17.6346 -38.1135 0.351134 -5.73237 12.4008 25.2847 2.08309 34.2967 -0.0 -0.0 0.0 0.0 0.0 
1023.67470764 714.118 -1724.59030651 -4.73010768528 35.291765312 -8.8160700474 2.26947 0.944909 5.50351 2.28612 0.593345 5.55228 2.342 -0.359643 5.57224 2.29908 0.523507 5.55928 -6.12274 14.316 -4.63118 -5.92449 29.8697 -1.95916 -0.0 0.0 -0.0 -1.15992 21.2652 0.812172 -38.5995 -55.8493 68.1157 0.227907 -6.44148 0.0128247 -75.9618 -7.3077 5.31587 0.16393 8.93115 4.76743 -0.0 0.0 -0.0 12.9092 21.2903 -25.9357 8.76397 27.4802 -68.6016 1.59554 38.3194 -0.554399 75.9071 3.37524 8.36242 -1.79994 -1.53169 11.4002 0.0 0.0 0.0 35.2607 13.8681 -1.82854 -24.9927 0.203068 3.79966 -17.0567 23.2021 2.64457 36.7963 -0.0 -0.0 -0.0 0.0 -0.0 20.6206 3.88351 17.6346 -38.1135 0.351134 -5.73237 12.4008 25.2847 2.08309 34.2967 -0.0 -0.0 0.0 0.0 0.0 
1020.63179515 714.118 -1720.28354156 -4.77199326926 35.9945684103 -8.74419387044 2.26947 0.944909 5.50351 2.28612 0.593345 5.55228 2.342 -0.359643 5.57224 2.29908 0.523507 5.55928 -6.12274 14.316 -4.63118 -5.92449 29.8697 -1.95916 -0.0 0.0 -0.0 -1.15992 21.2652 0.812172 -38.5995 -55.8493 68.1157 0.227907 -6.44148 0.0128247 -75.9618 -7.3077 5.31587 0.16393 8.93115 4.76743 -0.0 0.0 -0.0 12.9092 21.2903 -25.9357 8.76397 27.4802 -68.6016 1.59554 38.3194 -0.554399 75.9071 3.37524 8.36242 -1.79994 -1.53169 11.4002 0.0 0.0 0.0 35.2607 13.8681 -1.82854 -24.9927 0.203068 3.79966 -17.0567 23.2021 2.64457 36.7963 -0.0 -0.0 -0.0 0.0 -0.0 20.6206 3.88351 17.6346 -38.1135 0.351134 -5.73237 12.4008 25.2847 2.08309 34.2967 -0.0 -0.0 0.0 0.0 0.0 
1016.34564426 714.118 -1714.01971819 -4.8348906119 37.0060505592 -8.6384574677 2.26947 0.944909 5.50351 2.28612 0.593345 5.55228 2.342 -0.359643 5.57224 2.29908 0.523507 5.55928 -6.12274 14.316 -4.63118 -5.92449 29.8697 -1.95916 -0.0 0.0 -0.0 -1.15992 21.2652 0.812172 -38.5995 -55.8493 68.1157 0.227907 -6.44148 0.0128247 -75.9618 -7.3077 5.31587 0.16393 8.93115 4.76743 -0.0 0.0 -0.0 12.9092 21.2903 -25.9357 8.76397 27.4802 -68.6016 1.59554 38.3194 -0.554399 75.9071 3.37524 8.36242 -1.79994 -1.53169 11.4002 0.0 0.0 0.0 35.2607 13.8681 -1.82854 -24.9927 0.203068 3.79966 -17.0567 23.2021 2.64457 36.7963 -0.0 -0.0 -0.0 0.0 -0.0 20.6206 3.88351 17.6346 -38.1135 0.351134 -5.73237 12.4008 25.2847 2.08309 34.2967 -0.0 -0.0 0.0 0.0 0.0 
